# xmcd
#
# Track frame offsets:
#	150
#	16332
#	34539
#	50316
#	65535
#	87063
#	104350
#	123326
#	140374
#	159108
#	176876
#	191669
#
# Disc length: 2758 seconds
#
# Revision: 0
# Processed by: cddbd v1.5.2PL0 Copyright (c) Steve Scherf et al.
# Submitted via: EZCDAudioConverter 2.8.1.1
#
DISCID=940ac40c
DTITLE=Eero Raittinen - Eero Raittisen Eldis
DYEAR=2016
DGENRE=R&B
TTITLE0=Daga Daga
TTITLE1=Big D
TTITLE2=Corporation Voice
TTITLE3=Slippery Strive
TTITLE4=Nite Train
TTITLE5=Boll Weevil
TTITLE6=If I Wait a While Too Long
TTITLE7=I Can Deliver
TTITLE8=Troublemaker
TTITLE9=Good Conduct
TTITLE10=Sooner Or Later
TTITLE11=Lautta
EXTD=
EXTT0=
EXTT1=
EXTT2=
EXTT3=
EXTT4=
EXTT5=
EXTT6=
EXTT7=
EXTT8=
EXTT9=
EXTT10=
EXTT11=
PLAYORDER=
